<?xml version="1.0" encoding="utf-8"?>
<!-- Generator: Adobe Illustrator 21.0.2, SVG Export Plug-In . SVG Version: 6.00 Build 0)  -->
<svg version="1.1" id="Layer_1" xmlns="http://www.w3.org/2000/svg" xmlns:xlink="http://www.w3.org/1999/xlink" x="0px" y="0px"
	 viewBox="0 0 288 560" style="enable-background:new 0 0 288 560;" xml:space="preserve">
<style type="text/css">
	.st0{fill:#EC1C24;stroke:#F9F9F9;stroke-width:3;stroke-miterlimit:10;}
	.st1{fill:#F6F7F7;stroke:#F9F9F9;stroke-width:3;stroke-miterlimit:10;}
	.st2{fill:none;stroke:#F9F9F9;stroke-width:3;stroke-miterlimit:10;}
	.st3{fill:#4856A4;stroke:#FFFFFF;stroke-width:0.5;stroke-miterlimit:10;}
</style>
<path class="st0" d="M100.6,271.1c0.6-0.8,2.2-0.3,5.3,0c0,0,2,0,6,0c2.5,0,5.1,0,7.6,0c2.2,0,4.5,0,6.7,0c2.6,0,5.1,0,7.7,0
	c2.3,0,4.7,0,7,0c2.8,0,5.5,0,8.3,0c2.7,0,5.3,0,8,0c2.6,0,5.1,0,7.7,0c2.8,0,5.6,0,8.3,0c0,0,6.7,0,6.7,0c5.3,0,5.3,0,5.3,0
	c1.5-0.2,2.5-0.5,2.9,0c0.5,0.6,0,1.6-0.5,3.3c-0.3,1-0.1,0.7-0.7,7.1c-0.3,3.1-0.5,4.7-0.7,5.7c-0.4,1.8-1.1,4.5-1.1,4.5
	c-1.7,3.5-3.7,5.4-5.1,6.4c-0.9,0.7-1.7,1.1-3.3,2c-1.1,0.6-2,1-6.8,3.1c-2.6,1.1-3.9,1.6-4.9,2c-1.5,0.6-3.2,1.2-5.4,1.9
	c-3.8,1.2-6.8,1.6-7.6,1.8c-3.6,0.6-6.5,0.6-7.8,0.6c-0.6,0-3,0-6.1-0.4c-3-0.4-5.4-0.9-7-1.3c-3-0.8-5.2-1.6-6.8-2.2
	c-0.7-0.3-1.9-0.8-4.2-1.7c-2.7-1.1-4-1.7-5.1-2.2c-2.2-1-3.6-1.7-5-2.6c-1.8-1.2-4.5-3-6.1-6.3c-0.6-1.3-0.9-2.5-1.2-4.1
	c-0.4-1.6-0.5-2.8-0.7-4.9c-0.2-1.7-0.1-1.5-0.4-4.7c-0.3-2.7-0.4-4.1-0.5-4.6C100.7,272.2,100.3,271.6,100.6,271.1z"/>
<path class="st1" d="M94.1,224.6c-0.1,1-0.2,1.9-0.2,2.6c0,1.1,0.1,2,0.3,3.5c0.1,0.6,0.1,0.6,0.4,2.6c0,0,0,0,0.5,3.1
	c0.2,1.3,0.4,2.6,0.6,3.9l0.3,2c0.1,0.6,0.1,1.2,0.1,1.8c0,0.3,0.1,0.6,0.3,0.8c0.2,0.2,0.5,0.1,1.2,0c0,0,0,0,1.8,0
	c0,0,6.5,0,6.5,0c0,0,36.8,0,36.9,0c18,0,18,0,18,0s6.1,0.1,27,0c0.9,0,1.3,0,1.7-0.1c0.4-0.1,0.6-0.1,1-0.1c0.9-0.1,1,0.1,1.3,0
	c0.4-0.2,0.5-0.6,0.8-2.7c0.1-0.7,0.2-1.1,0.2-1.3c0,0,0.2-1.5,0.7-4.4c0.8-5.2,0.8-5,0.9-6.1c0.1-0.9,0.3-2.7,0.2-4.9
	c-0.1-2-0.4-2.7-0.9-3.1c-0.5-0.3-1.1-0.4-1.6-0.3c-1.1,0.2-2.2,0.3-3.4,0.3c-8.3,0-39,0-92.3,0c-0.5,0-1.1,0-1.6,0"/>
<g>
	<path class="st2" d="M144.6,219.8H97.1c-3.5,2.1-3.4,6.7-2.8,10.8c2.3,14.6,4.6,29.2,6.8,43.8c0.9,5.8,0.6,14.9,3.7,19.8
		c2.9,4.8,10.6,7.5,15.5,9.6c7.9,3.4,14.6,5.5,24.1,5.7"/>
	<path class="st2" d="M145.2,340.4c-9.1,0-16.4-1-25.3-2.4c-2-0.3-4-0.7-5.6-1.8c-3.3-2.2-4.1-6.6-4.6-10.5c-1.5-11-4-21.9-5.5-32.9
		"/>
	<path class="st2" d="M144.4,309.5c9.1,0,16.3-2.2,24.2-5.7c4.8-2.1,12.5-4.8,15.5-9.6c3-4.9,2.8-14.1,3.7-19.8
		c2.3-14.6,4.6-29.2,6.8-43.8c0.6-4.1,0.8-8.7-2.8-10.8h-47.5"/>
	<path class="st2" d="M145.2,340.4c8.9,0,15.7-0.5,24.6-1.9c2-0.3,4-0.7,5.6-1.8c3.3-2.2,4.1-6.6,4.6-10.5c1.5-11,3.1-21.9,4.6-32.9
		"/>
</g>
<path class="st3" d="M96.5,243.8L96.5,243.8c0,0,5.8,0,5.8,0c1.7,0,3.3,0,5,0c1.4,0,2.9,0,4.3,0c2.1,0,4.2,0,6.3,0
	c2.8,0,5.6,0,8.3,0c3,0,6,0,9,0c2.6,0,5.1,0,7.7,0c3.4,0,6.9,0,10.3,0c1.8,0,3.6,0,5.3,0c3.8,0,7.6,0,11.4,0c1.2,0,2.4,0,3.6,0
	c1.4,0,2.9,0,4.3,0c1.8,0,3.6,0,5.3,0h3.9c1.1,0,2.3-0.1,3.4-0.2c0.8-0.1,1.5-0.1,1.7,0.2c0.1,0.2,0,0.4-0.2,1.2
	c0,0-0.1,0.7-0.3,2.1c0,0-0.4,2.7-0.4,2.7c0,0-0.4,2.3-0.4,2.3c0,0-0.5,3.2-0.5,3.2c0,0-0.8,5-0.8,5c-0.2,1.2-0.4,2.4-0.6,3.7
	c-0.1,0.4-0.1,0.7-0.2,1c-0.2,1-0.2,2.1-0.3,3.2c0,0.3-0.1,0.6-0.3,0.9c-0.5,0.6-1.3,0.6-1.3,0.8c0,0.1,0.7,0,0.7,0
	c0,0-1.2,0.1-2.8,0.2c-3.1,0.2-5.9,0.1-7.1,0c-0.5,0-0.9,0-1.4,0c-1.7,0-7.1,0-24.4,0c-3.2,0-6.3,0-9.5,0c0,0-5.1,0-5.1,0
	c0,0-2.1,0-2.1,0c-0.5,0-1.1,0-1.6,0c0,0-1.3,0-1.3,0c0,0-1.7,0-1.8,0c0,0-1.7,0-1.8,0c-0.5,0-1,0-1.5,0c-0.4,0-0.9,0-1.3,0
	c-0.5,0-0.9,0-1.4,0c-0.7,0-1.4,0-2.2,0c-0.3,0-0.7,0-1,0c-0.9,0-1.7,0-2.6,0c-0.3,0-0.7,0-1,0c-0.5,0-1,0-1.5,0c-0.5,0-0.9,0-1.4,0
	c-0.4,0-0.7,0-1.1,0c-0.5,0-1,0-1.5,0c0,0-1.4,0-1.4,0c0,0-1.1,0-1.1,0c0,0-1.7,0-1.8,0c-0.4,0-0.8,0-1.2,0c-0.6,0-0.8,0-1.2,0
	c-0.3,0-0.5,0-0.9-0.1c-0.6-0.1-0.8-0.2-1.2-0.3c-0.3-0.1-0.5,0-1.3,0c-0.7,0-2-0.7-2,0c0,0,0.8,0.1,0.8,0c0.1-0.2-0.7-0.4-1-1.1
	c-0.1-0.1,0-0.1-0.2-1c0-0.3-0.1-0.6-0.1-0.9c0,0-0.2-1.3-0.2-1.3c0,0-0.2-1.3-0.2-1.3c-0.1-0.4-0.1-0.8-0.2-1.2
	c0,0-0.3-1.7-0.3-1.7c0,0-0.2-1.4-0.2-1.4l-0.2-1.5c-0.3-2-1-6.6-1-6.6l0.5,2.9c0,0-0.2-1.4-1.1-6.9L96.5,243.8z"/>
</svg>
