<?xml version="1.0" encoding="utf-8"?>
<!-- Generator: Adobe Illustrator 21.0.2, SVG Export Plug-In . SVG Version: 6.00 Build 0)  -->
<svg version="1.1" id="Layer_1" xmlns="http://www.w3.org/2000/svg" xmlns:xlink="http://www.w3.org/1999/xlink" x="0px" y="0px"
	 viewBox="0 0 104 123.6" style="enable-background:new 0 0 104 123.6;" xml:space="preserve">
<style type="text/css">
	.st0{fill:url(#SVGID_1_);stroke:#F9F9F9;stroke-width:3;stroke-miterlimit:10;}
	.st1{fill:#F7DCC7;stroke:#F9F9F9;stroke-width:3;stroke-miterlimit:10;}
	.st2{fill:#E57925;stroke:#F9F9F9;stroke-width:3;stroke-miterlimit:10;}
	.st3{fill:none;stroke:#F9F9F9;stroke-width:3;stroke-miterlimit:10;}
</style>
<title>b52</title>
<linearGradient id="SVGID_1_" gradientUnits="userSpaceOnUse" x1="126.9601" y1="281.074" x2="214.2901" y2="279.744" gradientTransform="matrix(1 0 0 1 -92 -209.2)">
	<stop  offset="2.000000e-02" style="stop-color:#492903"/>
	<stop  offset="0.17" style="stop-color:#492903"/>
	<stop  offset="0.19" style="stop-color:#492903"/>
	<stop  offset="0.35" style="stop-color:#492903"/>
	<stop  offset="0.39" style="stop-color:#482806"/>
	<stop  offset="0.63" style="stop-color:#41241A"/>
	<stop  offset="0.67" style="stop-color:#3F221E"/>
	<stop  offset="0.85" style="stop-color:#371D2C"/>
	<stop  offset="1" style="stop-color:#341B31"/>
</linearGradient>
<path class="st0" d="M8.2,52.9c0.6-0.8,2.2-0.3,5.3,0h78.1c0.8,0,1.7-0.1,2.5-0.2c0.8-0.1,1.3-0.1,1.6,0.2c0.5,0.6,0,1.6-0.5,3.3
	c-0.3,1-0.1,0.7-0.7,7.1C94.2,66.4,94,68,93.8,69c-0.1,0.7-0.3,1.4-0.5,2.1c-0.6,2.6-1.9,5.1-3.7,7.1c-0.6,0.7-1.3,1.3-2,1.8
	c-1,0.7-2.2,1.4-3.3,2c-1.1,0.6-2,1-6.8,3.1c-2.6,1.1-3.9,1.6-4.9,2c-1.5,0.6-3.2,1.2-5.4,1.9c-2.5,0.8-5,1.4-7.6,1.8
	c-2.6,0.4-5.2,0.6-7.8,0.6c-2,0-4.1-0.1-6.1-0.4c-2.4-0.3-4.7-0.7-7-1.3c-2.3-0.6-4.6-1.4-6.8-2.2c-0.7-0.3-1.9-0.8-4.2-1.7
	c-2.7-1.1-4-1.7-5.1-2.2c-1.7-0.7-3.4-1.6-5-2.6c-2.6-1.5-4.7-3.7-6.1-6.3c-0.6-1.3-1-2.7-1.2-4.1c-0.4-1.6-0.6-3.3-0.7-4.9
	C9.4,64,9.5,64.2,9.2,61c-0.3-2.7-0.4-4.1-0.5-4.6C8.3,53.9,7.8,53.4,8.2,52.9z"/>
<path class="st1" d="M4.1,26.5H93c1.8,0,3.7-0.1,5.5-0.3c0.6,0,1,0,1.2,0.3s0,0.4-0.2,1.2l-0.3,2.1l-0.4,2.7l-0.4,2.3L97.9,38
	l-0.8,5c-0.2,1.2-0.4,2.4-0.6,3.7c-0.3,1.9-0.4,2.9-0.4,2.9c0,1,0.1,1.6-0.3,2.1s-1.3,0.6-1.3,0.8s0.7,0,0.7,0s-1.2,0.1-2.8,0.2
	c-3.8,0.2-7.1,0-7.7,0H13.1c-0.3,0-0.6,0-0.9-0.1c-0.4-0.1-0.8-0.2-1.2-0.3c-0.4-0.1-0.9-0.1-1.3,0c-0.7,0-2-0.7-2,0
	c0,0,0.8,0.1,0.8,0s-0.7-0.4-1-1.1c-0.1-0.1,0-0.1-0.2-1c0-0.3-0.1-0.6-0.1-0.9L7,48l-0.2-1.3c-0.1-0.4-0.1-0.8-0.2-1.2l-0.3-1.7
	l-0.2-1.4l-0.2-1.5c-0.3-2-1-6.6-1-6.6l0.5,2.9c0,0-0.2-1.4-1.1-6.9L4.1,26.5z"/>
<path class="st2" d="M1.7,6.3c-0.1,1-0.2,1.9-0.2,2.6c0,1.2,0.1,2.3,0.3,3.5C1.9,13,1.9,13,2.2,15l0.5,3.1L3.3,22l0.3,2
	c0.1,0.6,0.1,1.2,0.1,1.8c0,0.3,0.1,0.6,0.3,0.8c0.2,0.2,0.5,0.1,1.2,0h63.2c0,0,6.1,0.1,27,0c0.6,0,1.1,0,1.7-0.1
	c0.3-0.1,0.7-0.1,1-0.1c0.9-0.1,1,0.1,1.3,0s0.5-0.6,0.8-2.7c0.1-0.7,0.2-1.1,0.2-1.3c0,0,0.2-1.5,0.7-4.4c0.8-5.2,0.8-5,0.9-6.1
	c0.2-1.6,0.3-3.3,0.2-4.9c-0.1-2-0.4-2.7-0.9-3.1c-0.5-0.3-1.1-0.4-1.7-0.3c-1.1,0.2-2.1,0.3-3.2,0.3h-94"/>
<path class="st3" d="M52.2,1.6H4.7C1.2,3.7,1.3,8.3,1.9,12.4C4.2,27,6.5,41.6,8.7,56.2C9.6,62,9.3,71.1,12.4,76
	c2.9,4.8,10.6,7.5,15.5,9.6c7.9,3.4,14.6,5.5,24.1,5.7"/>
<path class="st3" d="M52.7,122.1c-9.1,0-16.4-1-25.3-2.4c-2-0.2-3.9-0.8-5.6-1.8c-3.3-2.2-4.1-6.6-4.6-10.5c-1.5-11-4-21.9-5.5-32.9
	"/>
<path class="st3" d="M52,91.2c9.1,0,16.3-2.2,24.2-5.7c4.8-2.1,12.5-4.8,15.5-9.6s2.8-14.1,3.7-19.8c2.3-14.6,4.6-29.2,6.8-43.8
	c0.6-4.1,0.8-8.7-2.8-10.8H51.9"/>
<path class="st3" d="M52.7,122.1c8.2,0.1,16.5-0.6,24.6-1.9c2-0.2,3.9-0.8,5.6-1.8c3.3-2.2,4.1-6.6,4.6-10.5
	C89,96.9,90.6,86,92.1,75"/>
</svg>
