<svg id="Layer_1" data-name="Layer 1" xmlns="http://www.w3.org/2000/svg" viewBox="0 0 103.96 123.6"><defs><style>.cls-1{fill:#6fbd44;}.cls-1,.cls-2,.cls-3,.cls-4{stroke:#f9f9f9;stroke-miterlimit:10;stroke-width:3px;}.cls-2{fill:#f7dcc7;}.cls-3{fill:#e57925;}.cls-4{fill:none;}</style></defs><title>irishflag(2)</title><path class="cls-1" d="M100.3,271.1c.6-.8,2.2-.3,5.3,0h78.1a21.05,21.05,0,0,0,2.5-.2c.8-.1,1.3-.1,1.6.2.5.6,0,1.6-.5,3.3-.3,1-.1.7-.7,7.1-.3,3.1-.5,4.7-.7,5.7a20.94,20.94,0,0,1-.5,2.1,16.18,16.18,0,0,1-3.7,7.1,10.42,10.42,0,0,1-2,1.8,25.43,25.43,0,0,1-3.3,2c-1.1.6-2,1-6.8,3.1-2.6,1.1-3.9,1.6-4.9,2-1.5.6-3.2,1.2-5.4,1.9a65.64,65.64,0,0,1-7.6,1.8,46,46,0,0,1-7.8.6,47.88,47.88,0,0,1-6.1-.4,64.76,64.76,0,0,1-7-1.3,69.28,69.28,0,0,1-6.8-2.2c-.7-.3-1.9-.8-4.2-1.7-2.7-1.1-4-1.7-5.1-2.2a37.43,37.43,0,0,1-5-2.6,16.07,16.07,0,0,1-6.1-6.3,16.39,16.39,0,0,1-1.2-4.1,30.29,30.29,0,0,1-.7-4.9c-.2-1.7-.1-1.5-.4-4.7-.3-2.7-.4-4.1-.5-4.6C100.3,272.2,99.9,271.6,100.3,271.1Z" transform="translate(-92.08 -218.3)"/><path class="cls-2" d="M96.2,244.8h92.3c1.6-.2,3-.6,3.4,0,.1.2,0,.4-.2,1.2l-.3,2.1-.4,2.7-.4,2.3-.5,3.2-.8,5c-.2,1.2-.4,2.4-.6,3.7-.3,1.9-.4,2.9-.4,2.9,0,1,.1,1.6-.3,2.1s-1.3.6-1.3.8.7,0,.7,0-1.2.1-2.8.2c-3.8.2-7.1,0-7.7,0H105.3a3.08,3.08,0,0,1-.9-.1,10.38,10.38,0,0,1-1.2-.3,5.19,5.19,0,0,0-1.3,0c-.7,0-2-.7-2,0,0,0,.8.1.8,0s-.7-.4-1-1.1c-.1-.1,0-.1-.2-1,0-.3-.1-.6-.1-.9l-.2-1.3L99,265c-.1-.4-.1-.8-.2-1.2l-.3-1.7-.2-1.4-.2-1.5c-.3-2-1-6.6-1-6.6l.5,2.9s-.2-1.4-1.1-6.9Z" transform="translate(-92.08 -218.3)"/><path class="cls-3" d="M93.8,224.6c-.1,1-.2,1.9-.2,2.6a24.75,24.75,0,0,0,.3,3.5c.1.6.1.6.4,2.6l.5,3.1.6,3.9.3,2a10.87,10.87,0,0,1,.1,1.8,1.14,1.14,0,0,0,.3.8c.2.2.5.1,1.2,0h63.2s6.1.1,27,0a7.16,7.16,0,0,0,1.7-.1,3.4,3.4,0,0,1,1-.1c.9-.1,1,.1,1.3,0s.5-.6.8-2.7c.1-.7.2-1.1.2-1.3,0,0,.2-1.5.7-4.4.8-5.2.8-5,.9-6.1a30.52,30.52,0,0,0,.2-4.9c-.1-2-.4-2.7-.9-3.1a2.32,2.32,0,0,0-1.6-.3,20.68,20.68,0,0,1-3.5.3H94.4" transform="translate(-92.08 -218.3)"/><path class="cls-4" d="M144.2,219.8H96.7c-3.5,2.1-3.4,6.7-2.8,10.8,2.3,14.6,4.6,29.2,6.8,43.8.9,5.8.6,14.9,3.7,19.8,2.9,4.8,10.6,7.5,15.5,9.6,7.9,3.4,14.6,5.5,24.1,5.7" transform="translate(-92.08 -218.3)"/><path class="cls-4" d="M144.8,340.4c-9.1,0-16.4-1-25.3-2.4a13.21,13.21,0,0,1-5.6-1.8c-3.3-2.2-4.1-6.6-4.6-10.5-1.5-11-4-21.9-5.5-32.9" transform="translate(-92.08 -218.3)"/><path class="cls-4" d="M144,309.5c9.1,0,16.3-2.2,24.2-5.7,4.8-2.1,12.5-4.8,15.5-9.6s2.8-14.1,3.7-19.8c2.3-14.6,4.6-29.2,6.8-43.8.6-4.1.8-8.7-2.8-10.8H143.9" transform="translate(-92.08 -218.3)"/><path class="cls-4" d="M144.8,340.4a145.64,145.64,0,0,0,24.6-1.9,13.21,13.21,0,0,0,5.6-1.8c3.3-2.2,4.1-6.6,4.6-10.5,1.5-11,3.1-21.9,4.6-32.9" transform="translate(-92.08 -218.3)"/></svg>